HIERARCHY
ROOT Hips
{
 OFFSET 0.000000 0.000000 0.000000
 CHANNELS 6 Xposition Yposition Zposition Yrotation Xrotation Zrotation
 JOINT Chest
 {
  OFFSET 0.000000 9.857222 0.000240
  CHANNELS 3 Yrotation Xrotation Zrotation
  JOINT Chest2
  {
   OFFSET 0.000000 10.876940 -0.000436
   CHANNELS 3 Yrotation Xrotation Zrotation
   JOINT Chest3
   {
    OFFSET 0.000000 9.827798 0.000000
    CHANNELS 3 Yrotation Xrotation Zrotation
    JOINT Chest4
    {
     OFFSET 0.000000 9.827798 0.000000
     CHANNELS 3 Yrotation Xrotation Zrotation
     JOINT Neck
     {
      OFFSET 0.000000 13.831992 0.000000
      CHANNELS 3 Yrotation Xrotation Zrotation
      JOINT Head
      {
       OFFSET 0.000000 9.147643 -0.001036
       CHANNELS 3 Yrotation Xrotation Zrotation
       End Site
       {
        OFFSET 0.000000 17.515799 -0.000541
       }
      }
     }
     JOINT RightCollar
     {
      OFFSET -3.001579 7.717577 0.000000
      CHANNELS 3 Yrotation Xrotation Zrotation
      JOINT RightShoulder
      {
       OFFSET -14.002642 0.000000 0.000000
       CHANNELS 3 Yrotation Xrotation Zrotation
       JOINT RightElbow
       {
        OFFSET -30.053852 0.000000 0.000000
        CHANNELS 3 Yrotation Xrotation Zrotation
        JOINT RightWrist
        {
         OFFSET -24.564923 0.000000 -0.000000
         CHANNELS 3 Yrotation Xrotation Zrotation
         End Site
         {
          OFFSET -18.334355 0.000000 0.000000
         }
        }
       }
      }
     }
     JOINT LeftCollar
     {
      OFFSET 3.001579 7.717577 0.000000
      CHANNELS 3 Yrotation Xrotation Zrotation
      JOINT LeftShoulder
      {
       OFFSET 14.002642 0.000000 0.000000
       CHANNELS 3 Yrotation Xrotation Zrotation
       JOINT LeftElbow
       {
        OFFSET 30.053852 0.000000 0.000000
        CHANNELS 3 Yrotation Xrotation Zrotation
        JOINT LeftWrist
        {
         OFFSET 24.564923 0.000000 -0.000000
         CHANNELS 3 Yrotation Xrotation Zrotation
         End Site
         {
          OFFSET 18.334355 0.000000 0.000000
         }
        }
       }
      }
     }
    }
   }
  }
 }
 JOINT RightHip
 {
  OFFSET -8.003235 -0.001175 -0.000120
  CHANNELS 3 Yrotation Xrotation Zrotation
  JOINT RightKnee
  {
   OFFSET 0.000000 -41.759727 0.000113
   CHANNELS 3 Yrotation Xrotation Zrotation
   JOINT RightAnkle
   {
    OFFSET 0.000000 -40.728748 0.000159
    CHANNELS 3 Yrotation Xrotation Zrotation
    JOINT RightToe
    {
     OFFSET 0.000000 -6.515296 14.732841
     CHANNELS 3 Yrotation Xrotation Zrotation
     End Site
     {
      OFFSET 0.000000 -1.502839 6.412115
     }
    }
   }
  }
 }
 JOINT LeftHip
 {
  OFFSET 8.003235 -0.001175 -0.000120
  CHANNELS 3 Yrotation Xrotation Zrotation
  JOINT LeftKnee
  {
   OFFSET 0.000000 -41.759727 0.000113
   CHANNELS 3 Yrotation Xrotation Zrotation
   JOINT LeftAnkle
   {
    OFFSET 0.000000 -40.728748 0.000159
    CHANNELS 3 Yrotation Xrotation Zrotation
    JOINT LeftToe
    {
     OFFSET 0.000000 -6.515296 14.732841
     CHANNELS 3 Yrotation Xrotation Zrotation
     End Site
     {
      OFFSET 0.000000 -1.502839 6.412115
     }
    }
   }
  }
 }
}
MOTION
Frames: 10
Frame Time: 0.016667
0.000000 88.822259 0.000000 0.000000 -5.826342 0.000000 0.000000 11.116423 0.000000 0.000000 -5.290081 0.000000 0.000000 0.000000 0.000000 0.000000 0.000000 0.000000 0.000000 12.665069 0.000000 0.000000 0.575450 0.000000 0.000000 0.000000 0.000000 0.000000 0.000000 0.000000 2.337306 0.000000 0.000000 -2.337306 0.000000 0.000000 0.000000 0.000000 0.000000 0.000000 0.000000 0.000000 -2.337306 0.000000 0.000000 2.337306 0.000000 0.000000 0.000000 8.578828 0.000000 0.000000 1.905768 0.000000 0.000000 -4.658254 0.000000 0.000000 0.000000 0.000000 0.000000 8.578828 0.000000 0.000000 1.905768 0.000000 0.000000 -4.658254 0.000000 0.000000 0.000000 0.000000
5.704164 90.208226 16.318298 -45.070885 -13.358250 0.504612 2.258544 1.969029 0.736119 1.045074 0.924818 0.108472 1.045074 0.924818 0.108472 0.783625 0.693801 0.079771 1.472835 27.755569 0.137962 2.591051 15.367787 -0.058544 2.738280 20.628466 13.275837 12.996340 8.060702 66.952452 127.007318 -18.022382 7.573608 0.795328 0.211050 -9.883341 -26.624922 30.065716 -23.454550 -28.342506 12.146361 -64.662726 -106.459043 38.098354 19.678853 7.180091 5.570757 12.341977 -2.004835 14.152456 -7.094894 4.765716 2.593776 1.550609 1.580107 -3.583422 3.824015 -0.182110 0.179365 0.074319 -3.535620 21.401352 3.178518 19.818387 7.396932 -6.219399 2.227023 -11.441706 -1.511096 0.984999 0.043753 0.491166
5.723595 90.207504 16.372968 -45.207141 -13.377493 0.527697 2.307521 2.012592 0.738498 1.040116 0.915686 0.108559 1.040116 0.915686 0.108559 0.779907 0.686952 0.079859 1.493265 27.752679 0.131105 2.628813 15.362809 -0.075002 2.743302 20.654933 13.282051 12.995803 8.113532 66.953377 127.074620 -18.133224 7.490439 0.764764 0.226311 -9.919490 -26.663133 30.116311 -23.477373 -28.351806 12.102137 -64.623001 -106.439248 38.162688 19.736942 7.220036 5.522672 12.422775 -1.860510 14.170096 -7.099484 4.782619 2.607659 1.515936 1.581583 -3.586750 3.838665 -0.177009 0.175959 0.071128 -3.348226 21.341550 3.200589 19.815124 7.625603 -6.230128 2.250744 -11.550581 -1.481534 0.935233 0.024143 0.470215
5.741772 90.206840 16.425263 -45.360222 -13.397716 0.568282 2.359567 2.049685 0.719271 1.041291 0.907906 0.109255 1.041291 0.907906 0.109255 0.780789 0.681118 0.080393 1.515813 27.754837 0.123834 2.670411 15.367248 -0.092539 2.748657 20.676578 13.292766 13.002383 8.160405 66.961675 127.149984 -18.121697 7.435136 0.738039 0.242201 -9.971613 -26.706735 30.178686 -23.498917 -28.356203 12.060801 -64.574988 -106.395603 38.288174 19.769792 7.271113 5.479990 12.540312 -1.708593 14.188297 -7.130901 4.822428 2.611949 1.483153 1.600299 -3.587293 3.862158 -0.165245 0.173287 0.069187 -3.087523 21.287202 3.236347 19.747064 7.841142 -6.252027 2.325552 -11.651220 -1.438151 0.845111 0.004989 0.428953
5.756002 90.206349 16.477235 -45.516370 -13.402987 0.591543 2.406254 2.070330 0.711577 1.045613 0.899329 0.111908 1.045613 0.899329 0.111908 0.784029 0.674691 0.082391 1.539977 27.762905 0.116327 2.714909 15.382698 -0.110717 2.758742 20.713566 13.303570 13.047242 8.195322 66.983025 127.268349 -17.989945 7.363239 0.725866 0.247959 -10.035295 -26.750453 30.226681 -23.515189 -28.340595 12.031051 -64.529875 -106.333555 38.385961 19.843465 7.353921 5.508106 12.628708 -1.555691 14.198504 -7.129504 4.849147 2.613965 1.450757 1.574234 -3.593593 3.877350 -0.156240 0.176879 0.064612 -2.754659 21.218040 3.305716 19.631767 8.063171 -6.258473 2.350882 -11.783293 -1.406499 0.793246 0.006244 0.401637
5.769410 90.205666 16.530108 -45.694516 -13.405665 0.636784 2.462924 2.093655 0.682412 1.053707 0.891547 0.115987 1.053707 0.891547 0.115987 0.790095 0.668863 0.085451 1.563924 27.775822 0.107198 2.759333 15.407196 -0.131632 2.762741 20.733806 13.317286 13.128377 8.243102 67.011458 127.427234 -17.814988 7.273944 0.743434 0.261724 -10.106701 -26.788383 30.259716 -23.518685 -28.318715 12.016943 -64.487816 -106.225782 38.466191 19.918706 7.464424 5.563131 12.709985 -1.375610 14.206897 -7.153671 4.836077 2.608004 1.416548 1.595834 -3.590645 3.903316 -0.140425 0.175612 0.061882 -2.446994 21.143989 3.336635 19.546477 8.288412 -6.252326 2.427269 -11.902078 -1.362773 0.682158 -0.006134 0.347579
5.788688 90.205797 16.571711 -45.868634 -13.383917 0.663170 2.497093 2.084385 0.664427 1.063565 0.883704 0.122027 1.063565 0.883704 0.122027 0.797481 0.662992 0.089981 1.590945 27.796111 0.097024 2.809407 15.445459 -0.154886 2.762697 20.753262 13.328045 13.217922 8.273233 67.031434 127.604905 -17.622867 7.220469 0.751055 0.253502 -10.202515 -26.813214 30.296603 -23.520421 -28.299736 12.005242 -64.455177 -106.118513 38.509282 19.953801 7.573402 5.602062 12.817786 -1.172866 14.179208 -7.140357 4.792246 2.622561 1.382436 1.602475 -3.596174 3.922637 -0.127629 0.178822 0.057445 -2.218013 21.046601 3.361756 19.534456 8.504562 -6.254181 2.468589 -12.022198 -1.320197 0.613665 -0.003910 0.310261
5.811721 90.207971 16.600304 -46.055352 -13.334788 0.687660 2.530939 2.055655 0.646373 1.075780 0.870220 0.129142 1.075780 0.870220 0.129142 0.806635 0.652895 0.095323 1.619315 27.824763 0.083552 2.862512 15.499360 -0.184096 2.759556 20.753436 13.350646 13.304830 8.312386 67.041120 127.800439 -17.434425 7.197414 0.791430 0.229993 -10.303852 -26.850905 30.343641 -23.533444 -28.271465 11.996399 -64.422029 -106.067823 38.451864 20.022156 7.664873 5.657284 12.903606 -0.941736 14.107651 -7.116091 4.730150 2.651062 1.343650 1.614445 -3.593192 3.948675 -0.113010 0.176309 0.052970 -2.063432 20.916756 3.373240 19.535680 8.723042 -6.273763 2.585073 -12.132386 -1.279256 0.545165 -0.006351 0.273712
5.841763 90.211111 16.623691 -46.238718 -13.274900 0.726943 2.558277 2.021899 0.611117 1.086043 0.854632 0.135389 1.086043 0.854632 0.135389 0.814328 0.641217 0.100021 1.649742 27.857086 0.067282 2.919820 15.560191 -0.218602 2.758805 20.721628 13.377690 13.363629 8.372458 67.059061 128.020126 -17.199121 7.207733 0.854047 0.182083 -10.410836 -26.890594 30.378333 -23.543290 -28.233440 12.008755 -64.399890 -106.105413 38.297685 20.079864 7.742726 5.713013 12.986702 -0.744948 14.020960 -7.110557 4.666790 2.673662 1.305060 1.624749 -3.569044 3.976587 -0.097829 0.161186 0.046446 -1.945197 20.763599 3.359573 19.502805 8.950060 -6.290531 2.756360 -12.229679 -1.232685 0.448311 -0.022733 0.225337
5.874614 90.215977 16.646772 -46.400594 -13.206041 0.757687 2.562057 1.973546 0.583144 1.092654 0.836068 0.141588 1.092654 0.836068 0.141588 0.819282 0.627306 0.104695 1.682797 27.897247 0.046205 2.982726 15.635754 -0.261997 2.759816 20.704467 13.405050 13.391195 8.429496 67.084645 128.233054 -16.851618 7.268733 0.921367 0.144103 -10.547021 -26.919277 30.403012 -23.553969 -28.182140 12.047607 -64.385206 -106.237692 38.035929 20.161102 7.778707 5.779467 13.017736 -0.650518 13.922926 -7.131482 4.647310 2.683211 1.280937 1.638554 -3.547453 4.004413 -0.083668 0.155542 0.038893 -1.907196 20.595286 3.318723 19.457471 9.170400 -6.306795 2.947613 -12.330080 -1.187498 0.372251 -0.032488 0.190216
